<svg width="13" height="14" viewBox="0 0 13 14" fill="none" xmlns="http://www.w3.org/2000/svg">
<g filter="url(#filter0_i_2_9)">
<path d="M4.0791 10.5625C3.3916 10.5625 2.83535 11.125 2.83535 11.8125C2.83535 12.5 3.3916 13.0625 4.0791 13.0625C4.7666 13.0625 5.3291 12.5 5.3291 11.8125C5.3291 11.125 4.7666 10.5625 4.0791 10.5625ZM10.3291 10.5625C9.6416 10.5625 9.08535 11.125 9.08535 11.8125C9.08535 12.5 9.6416 13.0625 10.3291 13.0625C11.0166 13.0625 11.5791 12.5 11.5791 11.8125C11.5791 11.125 11.0166 10.5625 10.3291 10.5625ZM4.7666 7.4375H9.42285C9.8916 7.4375 10.3041 7.18125 10.5166 6.79375L12.5416 2.95625C12.6979 2.65625 12.5916 2.28125 12.2916 2.11875C11.9854 1.95 11.6041 2.06875 11.4416 2.375L9.42285 6.1875H5.03535L2.37285 0.5625H0.954102C0.610352 0.5625 0.329102 0.84375 0.329102 1.1875C0.329102 1.53125 0.610352 1.8125 0.954102 1.8125H1.5791L3.8291 6.55625L2.98535 8.08125C2.5291 8.91875 3.1291 9.9375 4.0791 9.9375H10.9541C11.2979 9.9375 11.5791 9.65625 11.5791 9.3125C11.5791 8.96875 11.2979 8.6875 10.9541 8.6875H4.0791L4.7666 7.4375Z" fill="white"/>
</g>
<defs>
<filter id="filter0_i_2_9" x="0.329102" y="0.5625" width="12.2842" height="12.5" filterUnits="userSpaceOnUse" color-interpolation-filters="sRGB">
<feFlood flood-opacity="0" result="BackgroundImageFix"/>
<feBlend mode="normal" in="SourceGraphic" in2="BackgroundImageFix" result="shape"/>
<feColorMatrix in="SourceAlpha" type="matrix" values="0 0 0 0 0 0 0 0 0 0 0 0 0 0 0 0 0 0 127 0" result="hardAlpha"/>
<feOffset dx="0.5" dy="0.5"/>
<feComposite in2="hardAlpha" operator="arithmetic" k2="-1" k3="1"/>
<feColorMatrix type="matrix" values="0 0 0 0 0.12549 0 0 0 0 0.12549 0 0 0 0 0.12549 0 0 0 0.2 0"/>
<feBlend mode="normal" in2="shape" result="effect1_innerShadow_2_9"/>
</filter>
</defs>
</svg>
